<?xml version="1.0" encoding="UTF-8"?>
<!DOCTYPE svg PUBLIC "-//W3C//DTD SVG 1.1//EN" "http://www.w3.org/Graphics/SVG/1.1/DTD/svg11.dtd">
<!-- Creator: CorelDRAW -->
<svg xmlns="http://www.w3.org/2000/svg" xml:space="preserve" width="40mm" height="40mm" version="1.1" style="shape-rendering:geometricPrecision; text-rendering:geometricPrecision; image-rendering:optimizeQuality; fill-rule:evenodd; clip-rule:evenodd"
viewBox="0 0 4000 4000"
 xmlns:xlink="http://www.w3.org/1999/xlink"
 xmlns:xodm="http://www.corel.com/coreldraw/odm/2003">
 <defs>
  <style type="text/css">
   <![CDATA[
    .fil0 {fill:black;fill-rule:nonzero}
   ]]>
  </style>
 </defs>
 <g id="Слой_x0020_1">
  <metadata id="CorelCorpID_0Corel-Layer"/>
  <path class="fil0" d="M2207.26 790.4c-680.41,-116.3 -1326.19,341.04 -1442.51,1021.36 -116.3,680.41 341.04,1326.21 1021.35,1442.51 680.42,116.3 1326.21,-341.04 1442.52,-1021.35 116.3,-680.41 -341.04,-1326.21 -1021.36,-1442.52zm318.61 1322.43c-49.91,292.27 -327.42,488.7 -619.68,438.78 -292.27,-49.92 -488.7,-327.42 -438.78,-619.68 49.92,-292.27 327.42,-488.7 619.68,-438.78 292.27,49.91 488.8,327.39 438.78,619.68z"/>
  <path class="fil0" d="M2929.25 3533.18c191.19,-118.99 359.1,-273.66 494.08,-457.13l184.35 136.73c130.17,-177.11 229.85,-373.29 296.16,-583.31l-218.63 -69.8c24.69,-77.99 46.21,-157.75 60.3,-240.76 24.68,-145.14 29.07,-288.73 19.06,-429.27l228.83 -16.49c-15.72,-219.34 -66.92,-433.45 -152.41,-636.6l-210.87 89.58c-88.06,-209.29 -215.06,-399.53 -373.59,-560.86l162.93 -161.63c-154.24,-156.93 -331.66,-286.26 -527.24,-384.55l-101.91 204.79c-152.61,-76.68 -318.52,-132.82 -495.32,-163.17l38.26 -225.07c-216.69,-37.22 -435.83,-38.63 -651.19,-4.4l35.91 227.13c-225.78,35.98 -439.6,114.91 -631.61,230.22l-117.32 -197.11c-188.02,112.95 -355.24,254.9 -497.25,421.87l174.44 149.54c-144.04,169.54 -257.3,367.55 -330.74,587.41l-217.61 -73.29c-32.76,98.1 -58.15,199.87 -75.59,302.47 -19.29,113.26 -28.98,228.57 -28.88,342.64l229.27 -0.25c0.19,231.64 45.39,455.49 128.64,662.44l-212.61 86.29c81.92,203.65 195.77,391.63 338.4,558.51l172.72 -148.82c145.57,170.46 323.81,313.53 526.74,419.61l-105.49 203.45c183.83,96.15 381.46,162.77 587.43,198.13 10.5,1.84 20.92,3.48 31.42,5.12l34.99 -226.93c230.26,35.77 457.36,26.34 671.7,-23.68l51.43 222.73c212.9,-49.6 415.43,-133.66 601.81,-249.77l-120.61 -195.77zm-1167.61 -137.54c-756.98,-129.97 -1265.86,-851.94 -1136.4,-1612.48 129.36,-760.5 847.98,-1271.66 1604.98,-1141.7 756.98,129.96 1265.86,851.94 1136.4,1612.47 -129.48,760.51 -847.99,1271.67 -1604.98,1141.71z"/>
  <g id="_2329660059120">
  </g>
  <g id="_2329660061376">
  </g>
  <g id="_2329660061136">
  </g>
  <g id="_2329660058880">
  </g>
  <g id="_2329660060272">
  </g>
  <g id="_2329660060224">
  </g>
  <g id="_2329660061856">
  </g>
  <g id="_2329660059984">
  </g>
  <g id="_2329660057104">
  </g>
  <g id="_2329660057824">
  </g>
  <g id="_2329660058592">
  </g>
  <g id="_2329660056864">
  </g>
  <g id="_2329660056768">
  </g>
  <g id="_2329660057680">
  </g>
  <g id="_2329660056000">
  </g>
 </g>
</svg>
